<?xml version="1.0"?><svg width="3057.1494" height="1906.1273" xmlns="http://www.w3.org/2000/svg" xmlns:xlink="http://www.w3.org/1999/xlink">
 <title>aasdasd</title>
 <defs>
  <linearGradient id="linearGradient6573">
   <stop stop-color="#000000" stop-opacity="0.916031" offset="0" id="stop6575"/>
   <stop stop-color="#ffffff" stop-opacity="0" offset="1" id="stop6577"/>
  </linearGradient>
  <linearGradient y2="0.554093" x2="0.52945" y1="1.002774" x1="0.528336" id="linearGradient7371" xlink:href="#linearGradient6573"/>
 </defs>
 <metadata id="metadata3010">image/svg+xml</metadata>
 <g>
  <title>Layer 1</title>
  <g id="layer1">
   <rect fill="#000000" ry="0.076994" rx="0.547543" y="2.602175" x="1.68222" height="1903.5251" width="3055.4678" id="rect5805"/>
   <g id="g5068">
    <rect fill="#5a2ca0" ry="0.0625" rx="0.492188" y="920.538175" x="327.112" height="50" width="90" id="rect3925"/>
    <rect fill="#5a2ca0" id="rect3038" width="90" height="50" x="327.112" y="860.538175" rx="0.492188" ry="0.0625"/>
    <rect fill="#5a2ca0" ry="0.0625" rx="0.492188" y="800.538175" x="327.112" height="50" width="90" id="rect3040"/>
    <rect fill="#5a2ca0" id="rect3042" width="90" height="50" x="327.112" y="740.538175" rx="0.492188" ry="0.0625"/>
    <rect fill="#5a2ca0" ry="0.0625" rx="0.492188" y="680.538175" x="327.112" height="50" width="90" id="rect3044"/>
    <rect fill="#5a2ca0" id="rect3046" width="90" height="50" x="327.112" y="620.538175" rx="0.492188" ry="0.0625"/>
    <rect fill="#5a2ca0" id="rect3048" width="90" height="50" x="327.112" y="560.538175" rx="0.492188" ry="0.0625"/>
    <rect fill="#5a2ca0" ry="0.0625" rx="0.492188" y="500.538175" x="327.112" height="50" width="90" id="rect3050"/>
    <rect fill="#5a2ca0" id="rect3052" width="90" height="50" x="327.112" y="440.538178" rx="0.492188" ry="0.0625"/>
    <rect fill="#5a2ca0" ry="0.0625" rx="0.492188" y="380.538177" x="327.112" height="50" width="90" id="rect3054"/>
    <rect fill="#8800aa" id="rect3076" width="90" height="50" x="427.112" y="920.538175" rx="0.492188" ry="0.0625"/>
    <rect fill="#8800aa" ry="0.0625" rx="0.492188" y="860.538175" x="427.112" height="50" width="90" id="rect3078"/>
    <rect fill="#8800aa" id="rect3080" width="90" height="50" x="427.112" y="800.538175" rx="0.492188" ry="0.0625"/>
    <rect fill="#8800aa" ry="0.0625" rx="0.492188" y="740.538175" x="427.112" height="50" width="90" id="rect3082"/>
    <rect fill="#8800aa" id="rect3084" width="90" height="50" x="427.112" y="680.538175" rx="0.492188" ry="0.0625"/>
    <rect fill="#8800aa" ry="0.0625" rx="0.492188" y="620.538175" x="427.112" height="50" width="90" id="rect3086"/>
    <rect fill="#8800aa" ry="0.0625" rx="0.492188" y="560.538175" x="427.112" height="50" width="90" id="rect3088"/>
    <rect fill="#8800aa" id="rect3090" width="90" height="50" x="427.112" y="500.538175" rx="0.492188" ry="0.0625"/>
    <rect fill="#8800aa" ry="0.0625" rx="0.492188" y="440.538178" x="427.112" height="50" width="90" id="rect3092"/>
    <rect fill="#8800aa" id="rect3094" width="90" height="50" x="427.112" y="380.538177" rx="0.492188" ry="0.0625"/>
    <rect fill="#8800aa" ry="0.0625" rx="0.492188" y="320.538178" x="427.112" height="50" width="90" id="rect3096"/>
    <rect fill="#cc00ff" ry="0.0625" rx="0.492188" y="920.538175" x="527.112" height="50" width="90" id="rect3102"/>
    <rect fill="#cc00ff" id="rect3104" width="90" height="50" x="527.112" y="860.538175" rx="0.492188" ry="0.0625"/>
    <rect fill="#cc00ff" ry="0.0625" rx="0.492188" y="800.538175" x="527.112" height="50" width="90" id="rect3106"/>
    <rect fill="#cc00ff" id="rect3108" width="90" height="50" x="527.112" y="740.538175" rx="0.492188" ry="0.0625"/>
    <rect fill="#cc00ff" ry="0.0625" rx="0.492188" y="680.538175" x="527.112" height="50" width="90" id="rect3110"/>
    <rect fill="#cc00ff" id="rect3112" width="90" height="50" x="527.112" y="620.538175" rx="0.492188" ry="0.0625"/>
    <rect fill="#cc00ff" id="rect3114" width="90" height="50" x="527.112" y="560.538175" rx="0.492188" ry="0.0625"/>
    <rect fill="#cc00ff" ry="0.0625" rx="0.492188" y="500.538175" x="527.112" height="50" width="90" id="rect3116"/>
    <rect fill="#cc00ff" id="rect3118" width="90" height="50" x="527.112" y="440.538178" rx="0.492188" ry="0.0625"/>
    <rect fill="#dd55ff" id="rect3128" width="90" height="50" x="627.112" y="920.538175" rx="0.492188" ry="0.0625"/>
    <rect fill="#dd55ff" ry="0.0625" rx="0.492188" y="860.538175" x="627.112" height="50" width="90" id="rect3130"/>
    <rect fill="#dd55ff" id="rect3132" width="90" height="50" x="627.112" y="800.538175" rx="0.492188" ry="0.0625"/>
    <rect fill="#dd55ff" ry="0.0625" rx="0.492188" y="740.538175" x="627.112" height="50" width="90" id="rect3134"/>
    <rect fill="#dd55ff" id="rect3136" width="90" height="50" x="627.112" y="680.538175" rx="0.492188" ry="0.0625"/>
    <rect fill="#dd55ff" ry="0.0625" rx="0.492188" y="620.538175" x="627.112" height="50" width="90" id="rect3138"/>
    <rect fill="#dd55ff" ry="0.0625" rx="0.492188" y="560.538175" x="627.112" height="50" width="90" id="rect3140"/>
    <rect fill="#dd55ff" id="rect3142" width="90" height="50" x="627.112" y="500.538175" rx="0.492188" ry="0.0625"/>
    <rect fill="#ff5599" ry="0.0625" rx="0.492188" y="920.538175" x="727.112" height="50" width="90" id="rect3154"/>
    <rect fill="#ff5599" id="rect3156" width="90" height="50" x="727.112" y="860.538175" rx="0.492188" ry="0.0625"/>
    <rect fill="#ff5599" ry="0.0625" rx="0.492188" y="800.538175" x="727.112" height="50" width="90" id="rect3158"/>
    <rect fill="#ff5599" id="rect3160" width="90" height="50" x="727.112" y="740.538175" rx="0.492188" ry="0.0625"/>
    <rect fill="#ff5599" ry="0.0625" rx="0.492188" y="680.538175" x="727.112" height="50" width="90" id="rect3162"/>
    <rect fill="#ff5599" id="rect3164" width="90" height="50" x="727.112" y="620.538175" rx="0.492188" ry="0.0625"/>
    <rect fill="#ff5599" id="rect3166" width="90" height="50" x="727.112" y="560.538175" rx="0.492188" ry="0.0625"/>
    <rect fill="#ff5599" ry="0.0625" rx="0.492188" y="500.538175" x="727.112" height="50" width="90" id="rect3168"/>
    <rect fill="#ff5599" id="rect3170" width="90" height="50" x="727.112" y="440.538178" rx="0.492188" ry="0.0625"/>
    <rect fill="#ff5599" ry="0.0625" rx="0.492188" y="380.538177" x="727.112" height="50" width="90" id="rect3172"/>
    <rect fill="#aa0044" id="rect3180" width="90" height="50" x="827.112" y="920.538175" rx="0.492188" ry="0.0625"/>
    <rect fill="#aa0044" ry="0.0625" rx="0.492188" y="860.538175" x="827.112" height="50" width="90" id="rect3182"/>
    <rect fill="#aa0044" id="rect3184" width="90" height="50" x="827.112" y="800.538175" rx="0.492188" ry="0.0625"/>
    <rect fill="#aa0044" ry="0.0625" rx="0.492188" y="740.538175" x="827.112" height="50" width="90" id="rect3186"/>
    <rect fill="#aa0044" id="rect3188" width="90" height="50" x="827.112" y="680.538175" rx="0.492188" ry="0.0625"/>
    <rect fill="#aa0044" ry="0.0625" rx="0.492188" y="620.538175" x="827.112" height="50" width="90" id="rect3190"/>
    <rect fill="#aa0044" ry="0.0625" rx="0.492188" y="560.538175" x="827.112" height="50" width="90" id="rect3192"/>
    <rect fill="#aa0044" id="rect3194" width="90" height="50" x="827.112" y="500.538175" rx="0.492188" ry="0.0625"/>
    <rect fill="#aa0044" ry="0.0625" rx="0.492188" y="440.538178" x="827.112" height="50" width="90" id="rect3196"/>
    <rect fill="#ff2a2a" ry="0.0625" rx="0.492188" y="920.538175" x="927.112" height="50" width="90" id="rect3206"/>
    <rect fill="#ff2a2a" id="rect3208" width="90" height="50" x="927.112" y="860.538175" rx="0.492188" ry="0.0625"/>
    <rect fill="#ff2a2a" ry="0.0625" rx="0.492188" y="800.538175" x="927.112" height="50" width="90" id="rect3210"/>
    <rect fill="#ff2a2a" id="rect3212" width="90" height="50" x="927.112" y="740.538175" rx="0.492188" ry="0.0625"/>
    <rect fill="#ff2a2a" ry="0.0625" rx="0.492188" y="680.538175" x="927.112" height="50" width="90" id="rect3214"/>
    <rect fill="#ff2a2a" id="rect3216" width="90" height="50" x="927.112" y="620.538175" rx="0.492188" ry="0.0625"/>
    <rect fill="#ff2a2a" id="rect3218" width="90" height="50" x="927.112" y="560.538175" rx="0.492188" ry="0.0625"/>
    <rect fill="#ff2a2a" ry="0.0625" rx="0.492188" y="500.538175" x="927.112" height="50" width="90" id="rect3220"/>
    <rect fill="#ff2a2a" id="rect3232" width="90" height="50" x="1027.112" y="920.538175" rx="0.492188" ry="0.0625"/>
    <rect fill="#ff2a2a" ry="0.0625" rx="0.492188" y="860.538175" x="1027.112" height="50" width="90" id="rect3234"/>
    <rect fill="#ff2a2a" id="rect3236" width="90" height="50" x="1027.112" y="800.538175" rx="0.492188" ry="0.0625"/>
    <rect fill="#ff2a2a" ry="0.0625" rx="0.492188" y="740.538175" x="1027.112" height="50" width="90" id="rect3238"/>
    <rect fill="#ff2a2a" id="rect3240" width="90" height="50" x="1027.112" y="680.538175" rx="0.492188" ry="0.0625"/>
    <rect fill="#ff2a2a" ry="0.0625" rx="0.492188" y="620.538175" x="1027.112" height="50" width="90" id="rect3242"/>
    <rect fill="#ff2a2a" ry="0.0625" rx="0.492188" y="560.538175" x="1027.112" height="50" width="90" id="rect3244"/>
    <rect fill="#ff2a2a" id="rect3246" width="90" height="50" x="1027.112" y="500.538175" rx="0.492188" ry="0.0625"/>
    <rect fill="#ff2a2a" ry="0.0625" rx="0.492188" y="440.538178" x="1027.112" height="50" width="90" id="rect3248"/>
    <rect fill="#ff7f2a" ry="0.0625" rx="0.492188" y="920.538175" x="1127.112" height="50" width="90" id="rect3258"/>
    <rect fill="#ff7f2a" id="rect3260" width="90" height="50" x="1127.112" y="860.538175" rx="0.492188" ry="0.0625"/>
    <rect fill="#ff7f2a" ry="0.0625" rx="0.492188" y="800.538175" x="1127.112" height="50" width="90" id="rect3262"/>
    <rect fill="#ff7f2a" id="rect3264" width="90" height="50" x="1127.112" y="740.538175" rx="0.492188" ry="0.0625"/>
    <rect fill="#ff7f2a" ry="0.0625" rx="0.492188" y="680.538175" x="1127.112" height="50" width="90" id="rect3266"/>
    <rect fill="#ff7f2a" id="rect3268" width="90" height="50" x="1127.112" y="620.538175" rx="0.492188" ry="0.0625"/>
    <rect fill="#ff7f2a" id="rect3270" width="90" height="50" x="1127.112" y="560.538175" rx="0.492188" ry="0.0625"/>
    <rect fill="#ff7f2a" ry="0.0625" rx="0.492188" y="500.538175" x="1127.112" height="50" width="90" id="rect3272"/>
    <rect fill="#ff7f2a" id="rect3274" width="90" height="50" x="1127.112" y="440.538178" rx="0.492188" ry="0.0625"/>
    <rect fill="#ff7f2a" ry="0.0625" rx="0.492188" y="380.538177" x="1127.112" height="50" width="90" id="rect3276"/>
    <rect fill="#ff6600" id="rect3284" width="90" height="50" x="1227.112" y="920.538175" rx="0.492188" ry="0.0625"/>
    <rect fill="#ff6600" ry="0.0625" rx="0.492188" y="860.538175" x="1227.112" height="50" width="90" id="rect3286"/>
    <rect fill="#ff6600" id="rect3288" width="90" height="50" x="1227.112" y="800.538175" rx="0.492188" ry="0.0625"/>
    <rect fill="#ff6600" ry="0.0625" rx="0.492188" y="740.538175" x="1227.112" height="50" width="90" id="rect3290"/>
    <rect fill="#ff6600" id="rect3292" width="90" height="50" x="1227.112" y="680.538175" rx="0.492188" ry="0.0625"/>
    <rect fill="#ff6600" ry="0.0625" rx="0.492188" y="620.538175" x="1227.112" height="50" width="90" id="rect3294"/>
    <rect fill="#ff6600" ry="0.0625" rx="0.492188" y="560.538175" x="1227.112" height="50" width="90" id="rect3296"/>
    <rect fill="#ff6600" id="rect3298" width="90" height="50" x="1227.112" y="500.538175" rx="0.492188" ry="0.0625"/>
    <rect fill="#ff6600" ry="0.0625" rx="0.492188" y="440.538178" x="1227.112" height="50" width="90" id="rect3300"/>
    <rect fill="#ff6600" id="rect3302" width="90" height="50" x="1227.112" y="380.538177" rx="0.492188" ry="0.0625"/>
    <rect fill="#ff6600" ry="0.0625" rx="0.492188" y="320.538178" x="1227.112" height="50" width="90" id="rect3304"/>
    <rect fill="#ff6600" id="rect3306" width="90" height="50" x="1227.112" y="260.538175" rx="0.492188" ry="0.0625"/>
    <rect fill="#fcfc1c" ry="0.0625" rx="0.492188" y="920.538175" x="1327.112" height="50" width="90" id="rect3310"/>
    <rect fill="#fcfc1c" id="rect3312" width="90" height="50" x="1327.112" y="860.538175" rx="0.492188" ry="0.0625"/>
    <rect fill="#fcfc1c" ry="0.0625" rx="0.492188" y="800.538175" x="1327.112" height="50" width="90" id="rect3314"/>
    <rect fill="#fcfc1c" id="rect3316" width="90" height="50" x="1327.112" y="740.538175" rx="0.492188" ry="0.0625"/>
    <rect fill="#fcfc1c" ry="0.0625" rx="0.492188" y="680.538175" x="1327.112" height="50" width="90" id="rect3318"/>
    <rect fill="#fcfc1c" id="rect3320" width="90" height="50" x="1327.112" y="620.538175" rx="0.492188" ry="0.0625"/>
    <rect fill="#fcfc1c" id="rect3322" width="90" height="50" x="1327.112" y="560.538175" rx="0.492188" ry="0.0625"/>
    <rect fill="#fcfc1c" ry="0.0625" rx="0.492188" y="500.538175" x="1327.112" height="50" width="90" id="rect3324"/>
    <rect fill="#fcfc1c" id="rect3326" width="90" height="50" x="1327.112" y="440.538178" rx="0.492188" ry="0.0625"/>
    <rect fill="#fcfc1c" ry="0.0625" rx="0.492188" y="380.538177" x="1327.112" height="50" width="90" id="rect3328"/>
    <rect fill="#ffd42a" id="rect3336" width="90" height="50" x="1427.112" y="920.538175" rx="0.492188" ry="0.0625"/>
    <rect fill="#ffd42a" ry="0.0625" rx="0.492188" y="860.538175" x="1427.112" height="50" width="90" id="rect3338"/>
    <rect fill="#ffd42a" id="rect3340" width="90" height="50" x="1427.112" y="800.538175" rx="0.492188" ry="0.0625"/>
    <rect fill="#ffd42a" ry="0.0625" rx="0.492188" y="740.538175" x="1427.112" height="50" width="90" id="rect3342"/>
    <rect fill="#ffd42a" id="rect3344" width="90" height="50" x="1427.112" y="680.538175" rx="0.492188" ry="0.0625"/>
    <rect fill="#ffd42a" ry="0.0625" rx="0.492188" y="620.538175" x="1427.112" height="50" width="90" id="rect3346"/>
    <rect fill="#ffd42a" ry="0.0625" rx="0.492188" y="560.538175" x="1427.112" height="50" width="90" id="rect3348"/>
    <rect fill="#ffd42a" id="rect3350" width="90" height="50" x="1427.112" y="500.538175" rx="0.492188" ry="0.0625"/>
    <rect fill="#ffd42a" ry="0.0625" rx="0.492188" y="440.538178" x="1427.112" height="50" width="90" id="rect3352"/>
    <rect fill="#ffd42a" id="rect3354" width="90" height="50" x="1427.112" y="380.538177" rx="0.492188" ry="0.0625"/>
    <rect fill="#ffd42a" ry="0.0625" rx="0.492188" y="320.538178" x="1427.112" height="50" width="90" id="rect3356"/>
    <rect fill="#f0e464" ry="0.0625" rx="0.492188" y="920.538175" x="1527.112" height="50" width="90" id="rect3362"/>
    <rect fill="#f0e464" id="rect3364" width="90" height="50" x="1527.112" y="860.538175" rx="0.492188" ry="0.0625"/>
    <rect fill="#f0e464" ry="0.0625" rx="0.492188" y="800.538175" x="1527.112" height="50" width="90" id="rect3366"/>
    <rect fill="#f0e464" id="rect3368" width="90" height="50" x="1527.112" y="740.538175" rx="0.492188" ry="0.0625"/>
    <rect fill="#f0e464" ry="0.0625" rx="0.492188" y="680.538175" x="1527.112" height="50" width="90" id="rect3370"/>
    <rect fill="#f0e464" id="rect3372" width="90" height="50" x="1527.112" y="620.538175" rx="0.492188" ry="0.0625"/>
    <rect fill="#f0e464" id="rect3374" width="90" height="50" x="1527.112" y="560.538175" rx="0.492188" ry="0.0625"/>
    <rect fill="#f0e464" ry="0.0625" rx="0.492188" y="500.538175" x="1527.112" height="50" width="90" id="rect3376"/>
    <rect fill="#dcb834" id="rect3388" width="90" height="50" x="1627.112" y="920.538175" rx="0.492188" ry="0.0625"/>
    <rect fill="#dcb834" ry="0.0625" rx="0.492188" y="860.538175" x="1627.112" height="50" width="90" id="rect3390"/>
    <rect fill="#dcb834" id="rect3392" width="90" height="50" x="1627.112" y="800.538175" rx="0.492188" ry="0.0625"/>
    <rect fill="#dcb834" ry="0.0625" rx="0.492188" y="740.538175" x="1627.112" height="50" width="90" id="rect3394"/>
    <rect fill="#dcb834" id="rect3396" width="90" height="50" x="1627.112" y="680.538175" rx="0.492188" ry="0.0625"/>
    <rect fill="#dcb834" ry="0.0625" rx="0.492188" y="620.538175" x="1627.112" height="50" width="90" id="rect3398"/>
    <rect fill="#dcb834" ry="0.0625" rx="0.492188" y="560.538175" x="1627.112" height="50" width="90" id="rect3400"/>
    <rect fill="#dcb834" id="rect3402" width="90" height="50" x="1627.112" y="500.538175" rx="0.492188" ry="0.0625"/>
    <rect fill="#dcb834" ry="0.0625" rx="0.492188" y="440.538178" x="1627.112" height="50" width="90" id="rect3404"/>
    <rect fill="#dcb834" id="rect3406" width="90" height="50" x="1627.112" y="380.538177" rx="0.492188" ry="0.0625"/>
    <rect fill="#c8fc04" ry="0.0625" rx="0.492188" y="920.538175" x="1727.112" height="50" width="90" id="rect3414"/>
    <rect fill="#c8fc04" id="rect3416" width="90" height="50" x="1727.112" y="860.538175" rx="0.492188" ry="0.0625"/>
    <rect fill="#c8fc04" ry="0.0625" rx="0.492188" y="800.538175" x="1727.112" height="50" width="90" id="rect3418"/>
    <rect fill="#c8fc04" id="rect3420" width="90" height="50" x="1727.112" y="740.538175" rx="0.492188" ry="0.0625"/>
    <rect fill="#c8fc04" ry="0.0625" rx="0.492188" y="680.538175" x="1727.112" height="50" width="90" id="rect3422"/>
    <rect fill="#c8fc04" id="rect3424" width="90" height="50" x="1727.112" y="620.538175" rx="0.492188" ry="0.0625"/>
    <rect fill="#c8fc04" id="rect3426" width="90" height="50" x="1727.112" y="560.538175" rx="0.492188" ry="0.0625"/>
    <rect fill="#c8fc04" ry="0.0625" rx="0.492188" y="500.538175" x="1727.112" height="50" width="90" id="rect3428"/>
    <rect fill="#c8fc04" id="rect3430" width="90" height="50" x="1727.112" y="440.538178" rx="0.492188" ry="0.0625"/>
    <rect fill="#c8fc04" ry="0.0625" rx="0.492188" y="380.538177" x="1727.112" height="50" width="90" id="rect3432"/>
    <rect fill="#c8fc04" id="rect3434" width="90" height="50" x="1727.112" y="320.538178" rx="0.492188" ry="0.0625"/>
    <rect fill="#c8fc04" ry="0.0625" rx="0.492188" y="260.538175" x="1727.112" height="50" width="90" id="rect3436"/>
    <rect fill="#00c800" id="rect3440" width="90" height="50" x="1827.112" y="920.538175" rx="0.492188" ry="0.0625"/>
    <rect fill="#00c800" ry="0.0625" rx="0.492188" y="860.538175" x="1827.112" height="50" width="90" id="rect3442"/>
    <rect fill="#00c800" id="rect3444" width="90" height="50" x="1827.112" y="800.538175" rx="0.492188" ry="0.0625"/>
    <rect fill="#00c800" ry="0.0625" rx="0.492188" y="740.538175" x="1827.112" height="50" width="90" id="rect3446"/>
    <rect fill="#00c800" id="rect3448" width="90" height="50" x="1827.112" y="680.538175" rx="0.492188" ry="0.0625"/>
    <rect fill="#00c800" ry="0.0625" rx="0.492188" y="620.538175" x="1827.112" height="50" width="90" id="rect3450"/>
    <rect fill="#00c800" ry="0.0625" rx="0.492188" y="560.538175" x="1827.112" height="50" width="90" id="rect3452"/>
    <rect fill="#00c800" id="rect3454" width="90" height="50" x="1827.112" y="500.538175" rx="0.492188" ry="0.0625"/>
    <rect fill="#00c800" ry="0.0625" rx="0.492188" y="440.538174" x="1827.112" height="50" width="90" id="rect3456"/>
    <rect fill="#00ac00" id="rect4233" width="90" height="50" x="1927.112" y="920.538175" rx="0.492188" ry="0.0625"/>
    <rect fill="#00ac00" ry="0.0625" rx="0.492188" y="860.538175" x="1927.112" height="50" width="90" id="rect4235"/>
    <rect fill="#00ac00" id="rect4237" width="90" height="50" x="1927.112" y="800.538175" rx="0.492188" ry="0.0625"/>
    <rect fill="#00ac00" ry="0.0625" rx="0.492188" y="740.538175" x="1927.112" height="50" width="90" id="rect4239"/>
    <rect fill="#00ac00" id="rect4241" width="90" height="50" x="1927.112" y="680.538175" rx="0.492188" ry="0.0625"/>
    <rect fill="#00ac00" ry="0.0625" rx="0.492188" y="620.538175" x="1927.112" height="50" width="90" id="rect4243"/>
    <rect fill="#00ac00" ry="0.0625" rx="0.492188" y="560.538175" x="1927.112" height="50" width="90" id="rect4245"/>
    <rect fill="#00ac00" id="rect4247" width="90" height="50" x="1927.112" y="500.538175" rx="0.492188" ry="0.0625"/>
    <rect fill="#00ac00" ry="0.0625" rx="0.492188" y="440.53817" x="1927.112" height="50" width="90" id="rect4249"/>
    <rect fill="#00ac00" id="rect4251" width="90" height="50" x="1927.112" y="380.538172" rx="0.492188" ry="0.0625"/>
    <rect fill="#24d000" ry="0.0625" rx="0.492188" y="920.538175" x="2027.112" height="50" width="90" id="rect4257"/>
    <rect fill="#24d000" id="rect4259" width="90" height="50" x="2027.112" y="860.538175" rx="0.492188" ry="0.0625"/>
    <rect fill="#24d000" ry="0.0625" rx="0.492188" y="800.538175" x="2027.112" height="50" width="90" id="rect4261"/>
    <rect fill="#24d000" id="rect4263" width="90" height="50" x="2027.112" y="740.538175" rx="0.492188" ry="0.0625"/>
    <rect fill="#24d000" ry="0.0625" rx="0.492188" y="680.538175" x="2027.112" height="50" width="90" id="rect4265"/>
    <rect fill="#24d000" id="rect4267" width="90" height="50" x="2027.112" y="620.538175" rx="0.492188" ry="0.0625"/>
    <rect fill="#24d000" id="rect4269" width="90" height="50" x="2027.112" y="560.538175" rx="0.492188" ry="0.0625"/>
    <rect fill="#24d000" ry="0.0625" rx="0.492188" y="500.538175" x="2027.112" height="50" width="90" id="rect4271"/>
    <rect fill="#24d000" id="rect4273" width="90" height="50" x="2027.112" y="440.53817" rx="0.492188" ry="0.0625"/>
    <rect fill="#24d000" ry="0.0625" rx="0.492188" y="380.538172" x="2027.112" height="50" width="90" id="rect4275"/>
    <rect fill="#24d000" id="rect4277" width="90" height="50" x="2027.112" y="320.538174" rx="0.492188" ry="0.0625"/>
    <rect fill="#24d000" ry="0.0625" rx="0.492188" y="260.538175" x="2027.112" height="50" width="90" id="rect4279"/>
    <rect fill="#64e000" id="rect4281" width="90" height="50" x="2127.112" y="920.538175" rx="0.492188" ry="0.0625"/>
    <rect fill="#64e000" ry="0.0625" rx="0.492188" y="860.538175" x="2127.112" height="50" width="90" id="rect4283"/>
    <rect fill="#64e000" id="rect4285" width="90" height="50" x="2127.112" y="800.538175" rx="0.492188" ry="0.0625"/>
    <rect fill="#64e000" ry="0.0625" rx="0.492188" y="740.538175" x="2127.112" height="50" width="90" id="rect4287"/>
    <rect fill="#64e000" id="rect4289" width="90" height="50" x="2127.112" y="680.538175" rx="0.492188" ry="0.0625"/>
    <rect fill="#64e000" ry="0.0625" rx="0.492188" y="620.538175" x="2127.112" height="50" width="90" id="rect4291"/>
    <rect fill="#64e000" ry="0.0625" rx="0.492188" y="560.538175" x="2127.112" height="50" width="90" id="rect4293"/>
    <rect fill="#64e000" id="rect4295" width="90" height="50" x="2127.112" y="500.538175" rx="0.492188" ry="0.0625"/>
    <rect fill="#64e000" ry="0.0625" rx="0.492188" y="440.53817" x="2127.112" height="50" width="90" id="rect4297"/>
    <rect fill="#64e000" id="rect4299" width="90" height="50" x="2127.112" y="380.538172" rx="0.492188" ry="0.0625"/>
    <rect fill="#64e000" ry="0.0625" rx="0.492188" y="320.538174" x="2127.112" height="50" width="90" id="rect4301"/>
    <rect fill="#4cd8fc" ry="0.0625" rx="0.492188" y="920.538175" x="2227.112" height="50" width="90" id="rect4305"/>
    <rect fill="#4cd8fc" id="rect4307" width="90" height="50" x="2227.112" y="860.538175" rx="0.492188" ry="0.0625"/>
    <rect fill="#4cd8fc" ry="0.0625" rx="0.492188" y="800.538175" x="2227.112" height="50" width="90" id="rect4309"/>
    <rect fill="#4cd8fc" id="rect4311" width="90" height="50" x="2227.112" y="740.538175" rx="0.492188" ry="0.0625"/>
    <rect fill="#4cd8fc" ry="0.0625" rx="0.492188" y="680.538175" x="2227.112" height="50" width="90" id="rect4313"/>
    <rect fill="#4cd8fc" id="rect4315" width="90" height="50" x="2227.112" y="620.538175" rx="0.492188" ry="0.0625"/>
    <rect fill="#4cd8fc" id="rect4317" width="90" height="50" x="2227.112" y="560.538175" rx="0.492188" ry="0.0625"/>
    <rect fill="#4cd8fc" ry="0.0625" rx="0.492188" y="500.538175" x="2227.112" height="50" width="90" id="rect4319"/>
    <rect fill="#4cd8fc" id="rect4321" width="90" height="50" x="2227.112" y="440.53817" rx="0.492188" ry="0.0625"/>
    <rect fill="#4cd8fc" ry="0.0625" rx="0.492188" y="380.538172" x="2227.112" height="50" width="90" id="rect4323"/>
    <rect fill="#00b8f8" id="rect4329" width="90" height="50" x="2327.112" y="920.538175" rx="0.492188" ry="0.0625"/>
    <rect fill="#00b8f8" ry="0.0625" rx="0.492188" y="860.538175" x="2327.112" height="50" width="90" id="rect4331"/>
    <rect fill="#00b8f8" id="rect4333" width="90" height="50" x="2327.112" y="800.538175" rx="0.492188" ry="0.0625"/>
    <rect fill="#00b8f8" ry="0.0625" rx="0.492188" y="740.538175" x="2327.112" height="50" width="90" id="rect4335"/>
    <rect fill="#00b8f8" id="rect4337" width="90" height="50" x="2327.112" y="680.538175" rx="0.492188" ry="0.0625"/>
    <rect fill="#00b8f8" ry="0.0625" rx="0.492188" y="620.538175" x="2327.112" height="50" width="90" id="rect4339"/>
    <rect fill="#00b8f8" ry="0.0625" rx="0.492188" y="560.538175" x="2327.112" height="50" width="90" id="rect4341"/>
    <rect fill="#00b8f8" id="rect4343" width="90" height="50" x="2327.112" y="500.538175" rx="0.492188" ry="0.0625"/>
    <rect fill="#00b8f8" ry="0.0625" rx="0.492188" y="440.53817" x="2327.112" height="50" width="90" id="rect4345"/>
    <rect fill="#0074e4" ry="0.0625" rx="0.492188" y="920.538175" x="2427.112" height="50" width="90" id="rect4353"/>
    <rect fill="#0074e4" id="rect4355" width="90" height="50" x="2427.112" y="860.538175" rx="0.492188" ry="0.0625"/>
    <rect fill="#0074e4" ry="0.0625" rx="0.492188" y="800.538175" x="2427.112" height="50" width="90" id="rect4357"/>
    <rect fill="#0074e4" id="rect4359" width="90" height="50" x="2427.112" y="740.538175" rx="0.492188" ry="0.0625"/>
    <rect fill="#0074e4" ry="0.0625" rx="0.492188" y="680.538175" x="2427.112" height="50" width="90" id="rect4361"/>
    <rect fill="#0074e4" id="rect4363" width="90" height="50" x="2427.112" y="620.538175" rx="0.492188" ry="0.0625"/>
    <rect fill="#0074e4" id="rect4365" width="90" height="50" x="2427.112" y="560.538175" rx="0.492188" ry="0.0625"/>
    <rect fill="#0074e4" ry="0.0625" rx="0.492188" y="500.538175" x="2427.112" height="50" width="90" id="rect4367"/>
    <rect fill="#0074e4" id="rect4369" width="90" height="50" x="2427.112" y="440.53817" rx="0.492188" ry="0.0625"/>
    <rect fill="#0074e4" ry="0.0625" rx="0.492188" y="380.538172" x="2427.112" height="50" width="90" id="rect4371"/>
    <rect fill="#0004c8" id="rect4377" width="90" height="50" x="2527.112" y="920.538175" rx="0.492188" ry="0.0625"/>
    <rect fill="#0004c8" ry="0.0625" rx="0.492188" y="860.538175" x="2527.112" height="50" width="90" id="rect4379"/>
    <rect fill="#0004c8" id="rect4381" width="90" height="50" x="2527.112" y="800.538175" rx="0.492188" ry="0.0625"/>
    <rect fill="#0004c8" ry="0.0625" rx="0.492188" y="740.538175" x="2527.112" height="50" width="90" id="rect4383"/>
    <rect fill="#0004c8" id="rect4385" width="90" height="50" x="2527.112" y="680.538175" rx="0.492188" ry="0.0625"/>
    <rect fill="#0004c8" ry="0.0625" rx="0.492188" y="620.538175" x="2527.112" height="50" width="90" id="rect4387"/>
    <rect fill="#0004c8" ry="0.0625" rx="0.492188" y="560.538175" x="2527.112" height="50" width="90" id="rect4389"/>
    <rect fill="#0004c8" id="rect4391" width="90" height="50" x="2527.112" y="500.538175" rx="0.492188" ry="0.0625"/>
    <rect fill="#0004c8" ry="0.0625" rx="0.492188" y="440.53817" x="2527.112" height="50" width="90" id="rect4393"/>
    <rect fill="#0004c8" id="rect4395" width="90" height="50" x="2527.112" y="380.538172" rx="0.492188" ry="0.0625"/>
    <rect fill="#0004c8" ry="0.0625" rx="0.492188" y="320.538174" x="2527.112" height="50" width="90" id="rect4397"/>
    <rect fill="#00006c" ry="0.0625" rx="0.492188" y="920.538175" x="2627.112" height="50" width="90" id="rect4401"/>
    <rect fill="#00006c" id="rect4403" width="90" height="50" x="2627.112" y="860.538175" rx="0.492188" ry="0.0625"/>
    <rect fill="#00006c" ry="0.0625" rx="0.492188" y="800.538175" x="2627.112" height="50" width="90" id="rect4405"/>
    <rect fill="#00006c" id="rect4407" width="90" height="50" x="2627.112" y="740.538175" rx="0.492188" ry="0.0625"/>
    <rect fill="#00006c" ry="0.0625" rx="0.492188" y="680.538175" x="2627.112" height="50" width="90" id="rect4409"/>
    <rect fill="#00006c" id="rect4411" width="90" height="50" x="2627.112" y="620.538175" rx="0.492188" ry="0.0625"/>
    <rect fill="#00006c" id="rect4413" width="90" height="50" x="2627.112" y="560.538175" rx="0.492188" ry="0.0625"/>
    <rect fill="#00006c" ry="0.0625" rx="0.492188" y="500.538175" x="2627.112" height="50" width="90" id="rect4415"/>
    <rect fill="#00006c" id="rect4417" width="90" height="50" x="2627.112" y="440.53817" rx="0.492188" ry="0.0625"/>
    <rect fill="#00006c" ry="0.0625" rx="0.492188" y="380.538172" x="2627.112" height="50" width="90" id="rect4419"/>
    <rect fill="#00006c" id="rect4421" width="90" height="50" x="2627.112" y="320.538174" rx="0.492188" ry="0.0625"/>
    <rect fill="#00006c" ry="0.0625" rx="0.492188" y="260.538175" x="2627.112" height="50" width="90" id="rect4423"/>
   </g>
   <rect fill="#5a2ca0" transform="translate(-432.888, 378.176) scale(1, -1)" ry="0.0625" rx="0.492188" y="-662.36224" x="760" height="50" width="90" id="rect5313"/>
   <rect fill="#5a2ca0" transform="translate(-432.888, 378.176) scale(1, -1)" id="rect5315" width="90" height="50" x="760" y="-722.36224" rx="0.492188" ry="0.0625"/>
   <rect fill="#5a2ca0" transform="translate(-432.888, 378.176) scale(1, -1)" ry="0.0625" rx="0.492188" y="-782.36224" x="760" height="50" width="90" id="rect5317"/>
   <rect fill="#5a2ca0" transform="translate(-432.888, 378.176) scale(1, -1)" id="rect5319" width="90" height="50" x="760" y="-842.36224" rx="0.492188" ry="0.0625"/>
   <rect fill="#5a2ca0" transform="translate(-432.888, 378.176) scale(1, -1)" ry="0.0625" rx="0.492188" y="-902.36224" x="760" height="50" width="90" id="rect5321"/>
   <rect fill="#5a2ca0" transform="translate(-432.888, 378.176) scale(1, -1)" id="rect5323" width="90" height="50" x="760" y="-962.36224" rx="0.492188" ry="0.0625"/>
   <rect fill="#5a2ca0" transform="translate(-432.888, 378.176) scale(1, -1)" id="rect5325" width="90" height="50" x="760" y="-1022.3622" rx="0.492188" ry="0.0625"/>
   <rect fill="#5a2ca0" transform="translate(-432.888, 378.176) scale(1, -1)" ry="0.0625" rx="0.492188" y="-1082.3622" x="760" height="50" width="90" id="rect5327"/>
   <rect fill="#5a2ca0" transform="translate(-432.888, 378.176) scale(1, -1)" id="rect5329" width="90" height="50" x="760" y="-1142.3622" rx="0.492188" ry="0.0625"/>
   <rect fill="#5a2ca0" transform="translate(-432.888, 378.176) scale(1, -1)" ry="0.0625" rx="0.492188" y="-1202.3622" x="760" height="50" width="90" id="rect5331"/>
   <rect fill="#8800aa" transform="translate(-432.888, 378.176) scale(1, -1)" id="rect5333" width="90" height="50" x="860" y="-662.36224" rx="0.492188" ry="0.0625"/>
   <rect fill="#8800aa" transform="translate(-432.888, 378.176) scale(1, -1)" ry="0.0625" rx="0.492188" y="-722.36224" x="860" height="50" width="90" id="rect5335"/>
   <rect fill="#8800aa" transform="translate(-432.888, 378.176) scale(1, -1)" id="rect5337" width="90" height="50" x="860" y="-782.36224" rx="0.492188" ry="0.0625"/>
   <rect fill="#8800aa" transform="translate(-432.888, 378.176) scale(1, -1)" ry="0.0625" rx="0.492188" y="-842.36224" x="860" height="50" width="90" id="rect5339"/>
   <rect fill="#8800aa" transform="translate(-432.888, 378.176) scale(1, -1)" id="rect5341" width="90" height="50" x="860" y="-902.36224" rx="0.492188" ry="0.0625"/>
   <rect fill="#8800aa" transform="translate(-432.888, 378.176) scale(1, -1)" ry="0.0625" rx="0.492188" y="-962.36224" x="860" height="50" width="90" id="rect5343"/>
   <rect fill="#8800aa" transform="translate(-432.888, 378.176) scale(1, -1)" ry="0.0625" rx="0.492188" y="-1022.3622" x="860" height="50" width="90" id="rect5345"/>
   <rect fill="#8800aa" transform="translate(-432.888, 378.176) scale(1, -1)" id="rect5347" width="90" height="50" x="860" y="-1082.3622" rx="0.492188" ry="0.0625"/>
   <rect fill="#8800aa" transform="translate(-432.888, 378.176) scale(1, -1)" ry="0.0625" rx="0.492188" y="-1142.3622" x="860" height="50" width="90" id="rect5349"/>
   <rect fill="#8800aa" transform="translate(-432.888, 378.176) scale(1, -1)" id="rect5351" width="90" height="50" x="860" y="-1202.3622" rx="0.492188" ry="0.0625"/>
   <rect fill="#8800aa" transform="translate(-432.888, 378.176) scale(1, -1)" ry="0.0625" rx="0.492188" y="-1262.3622" x="860" height="50" width="90" id="rect5353"/>
   <rect fill="#cc00ff" transform="translate(-432.888, 378.176) scale(1, -1)" ry="0.0625" rx="0.492188" y="-662.36224" x="960" height="50" width="90" id="rect5355"/>
   <rect fill="#cc00ff" transform="translate(-432.888, 378.176) scale(1, -1)" id="rect5357" width="90" height="50" x="960" y="-722.36224" rx="0.492188" ry="0.0625"/>
   <rect fill="#cc00ff" transform="translate(-432.888, 378.176) scale(1, -1)" ry="0.0625" rx="0.492188" y="-782.36224" x="960" height="50" width="90" id="rect5359"/>
   <rect fill="#cc00ff" transform="translate(-432.888, 378.176) scale(1, -1)" id="rect5361" width="90" height="50" x="960" y="-842.36224" rx="0.492188" ry="0.0625"/>
   <rect fill="#cc00ff" transform="translate(-432.888, 378.176) scale(1, -1)" ry="0.0625" rx="0.492188" y="-902.36224" x="960" height="50" width="90" id="rect5363"/>
   <rect fill="#cc00ff" transform="translate(-432.888, 378.176) scale(1, -1)" id="rect5365" width="90" height="50" x="960" y="-962.36224" rx="0.492188" ry="0.0625"/>
   <rect fill="#cc00ff" transform="translate(-432.888, 378.176) scale(1, -1)" id="rect5367" width="90" height="50" x="960" y="-1022.3622" rx="0.492188" ry="0.0625"/>
   <rect fill="#cc00ff" transform="translate(-432.888, 378.176) scale(1, -1)" ry="0.0625" rx="0.492188" y="-1082.3622" x="960" height="50" width="90" id="rect5369"/>
   <rect fill="#cc00ff" transform="translate(-432.888, 378.176) scale(1, -1)" id="rect5371" width="90" height="50" x="960" y="-1142.3622" rx="0.492188" ry="0.0625"/>
   <rect fill="#dd55ff" transform="translate(-432.888, 378.176) scale(1, -1)" id="rect5373" width="90" height="50" x="1060" y="-662.36224" rx="0.492188" ry="0.0625"/>
   <rect fill="#dd55ff" transform="translate(-432.888, 378.176) scale(1, -1)" ry="0.0625" rx="0.492188" y="-722.36224" x="1060" height="50" width="90" id="rect5375"/>
   <rect fill="#dd55ff" transform="translate(-432.888, 378.176) scale(1, -1)" id="rect5377" width="90" height="50" x="1060" y="-782.36224" rx="0.492188" ry="0.0625"/>
   <rect fill="#dd55ff" transform="translate(-432.888, 378.176) scale(1, -1)" ry="0.0625" rx="0.492188" y="-842.36224" x="1060" height="50" width="90" id="rect5379"/>
   <rect fill="#dd55ff" transform="translate(-432.888, 378.176) scale(1, -1)" id="rect5381" width="90" height="50" x="1060" y="-902.36224" rx="0.492188" ry="0.0625"/>
   <rect fill="#dd55ff" transform="translate(-432.888, 378.176) scale(1, -1)" ry="0.0625" rx="0.492188" y="-962.36224" x="1060" height="50" width="90" id="rect5383"/>
   <rect fill="#dd55ff" transform="translate(-432.888, 378.176) scale(1, -1)" ry="0.0625" rx="0.492188" y="-1022.3622" x="1060" height="50" width="90" id="rect5385"/>
   <rect fill="#dd55ff" transform="translate(-432.888, 378.176) scale(1, -1)" id="rect5387" width="90" height="50" x="1060" y="-1082.3622" rx="0.492188" ry="0.0625"/>
   <rect fill="#ff5599" transform="translate(-432.888, 378.176) scale(1, -1)" ry="0.0625" rx="0.492188" y="-662.36224" x="1160" height="50" width="90" id="rect5389"/>
   <rect fill="#ff5599" transform="translate(-432.888, 378.176) scale(1, -1)" id="rect5391" width="90" height="50" x="1160" y="-722.36224" rx="0.492188" ry="0.0625"/>
   <rect fill="#ff5599" transform="translate(-432.888, 378.176) scale(1, -1)" ry="0.0625" rx="0.492188" y="-782.36224" x="1160" height="50" width="90" id="rect5393"/>
   <rect fill="#ff5599" transform="translate(-432.888, 378.176) scale(1, -1)" id="rect5395" width="90" height="50" x="1160" y="-842.36224" rx="0.492188" ry="0.0625"/>
   <rect fill="#ff5599" transform="translate(-432.888, 378.176) scale(1, -1)" ry="0.0625" rx="0.492188" y="-902.36224" x="1160" height="50" width="90" id="rect5397"/>
   <rect fill="#ff5599" transform="translate(-432.888, 378.176) scale(1, -1)" id="rect5399" width="90" height="50" x="1160" y="-962.36224" rx="0.492188" ry="0.0625"/>
   <rect fill="#ff5599" transform="translate(-432.888, 378.176) scale(1, -1)" id="rect5401" width="90" height="50" x="1160" y="-1022.3622" rx="0.492188" ry="0.0625"/>
   <rect fill="#ff5599" transform="translate(-432.888, 378.176) scale(1, -1)" ry="0.0625" rx="0.492188" y="-1082.3622" x="1160" height="50" width="90" id="rect5403"/>
   <rect fill="#ff5599" transform="translate(-432.888, 378.176) scale(1, -1)" id="rect5405" width="90" height="50" x="1160" y="-1142.3622" rx="0.492188" ry="0.0625"/>
   <rect fill="#ff5599" transform="translate(-432.888, 378.176) scale(1, -1)" ry="0.0625" rx="0.492188" y="-1202.3622" x="1160" height="50" width="90" id="rect5407"/>
   <rect fill="#aa0044" transform="translate(-432.888, 378.176) scale(1, -1)" id="rect5409" width="90" height="50" x="1260" y="-662.36224" rx="0.492188" ry="0.0625"/>
   <rect fill="#aa0044" transform="translate(-432.888, 378.176) scale(1, -1)" ry="0.0625" rx="0.492188" y="-722.36224" x="1260" height="50" width="90" id="rect5411"/>
   <rect fill="#aa0044" transform="translate(-432.888, 378.176) scale(1, -1)" id="rect5413" width="90" height="50" x="1260" y="-782.36224" rx="0.492188" ry="0.0625"/>
   <rect fill="#aa0044" transform="translate(-432.888, 378.176) scale(1, -1)" ry="0.0625" rx="0.492188" y="-842.36224" x="1260" height="50" width="90" id="rect5415"/>
   <rect fill="#aa0044" transform="translate(-432.888, 378.176) scale(1, -1)" id="rect5417" width="90" height="50" x="1260" y="-902.36224" rx="0.492188" ry="0.0625"/>
   <rect fill="#aa0044" transform="translate(-432.888, 378.176) scale(1, -1)" ry="0.0625" rx="0.492188" y="-962.36224" x="1260" height="50" width="90" id="rect5419"/>
   <rect fill="#aa0044" transform="translate(-432.888, 378.176) scale(1, -1)" ry="0.0625" rx="0.492188" y="-1022.3622" x="1260" height="50" width="90" id="rect5421"/>
   <rect fill="#aa0044" transform="translate(-432.888, 378.176) scale(1, -1)" id="rect5423" width="90" height="50" x="1260" y="-1082.3622" rx="0.492188" ry="0.0625"/>
   <rect fill="#aa0044" transform="translate(-432.888, 378.176) scale(1, -1)" ry="0.0625" rx="0.492188" y="-1142.3622" x="1260" height="50" width="90" id="rect5425"/>
   <rect fill="#ff2a2a" transform="translate(-432.888, 378.176) scale(1, -1)" ry="0.0625" rx="0.492188" y="-662.36224" x="1360" height="50" width="90" id="rect5427"/>
   <rect fill="#ff2a2a" transform="translate(-432.888, 378.176) scale(1, -1)" id="rect5429" width="90" height="50" x="1360" y="-722.36224" rx="0.492188" ry="0.0625"/>
   <rect fill="#ff2a2a" transform="translate(-432.888, 378.176) scale(1, -1)" ry="0.0625" rx="0.492188" y="-782.36224" x="1360" height="50" width="90" id="rect5431"/>
   <rect fill="#ff2a2a" transform="translate(-432.888, 378.176) scale(1, -1)" id="rect5433" width="90" height="50" x="1360" y="-842.36224" rx="0.492188" ry="0.0625"/>
   <rect fill="#ff2a2a" transform="translate(-432.888, 378.176) scale(1, -1)" ry="0.0625" rx="0.492188" y="-902.36224" x="1360" height="50" width="90" id="rect5435"/>
   <rect fill="#ff2a2a" transform="translate(-432.888, 378.176) scale(1, -1)" id="rect5437" width="90" height="50" x="1360" y="-962.36224" rx="0.492188" ry="0.0625"/>
   <rect fill="#ff2a2a" transform="translate(-432.888, 378.176) scale(1, -1)" id="rect5439" width="90" height="50" x="1360" y="-1022.3622" rx="0.492188" ry="0.0625"/>
   <rect fill="#ff2a2a" transform="translate(-432.888, 378.176) scale(1, -1)" ry="0.0625" rx="0.492188" y="-1082.3622" x="1360" height="50" width="90" id="rect5441"/>
   <rect fill="#ff2a2a" transform="translate(-432.888, 378.176) scale(1, -1)" id="rect5443" width="90" height="50" x="1460" y="-662.36224" rx="0.492188" ry="0.0625"/>
   <rect fill="#ff2a2a" transform="translate(-432.888, 378.176) scale(1, -1)" ry="0.0625" rx="0.492188" y="-722.36224" x="1460" height="50" width="90" id="rect5445"/>
   <rect fill="#ff2a2a" transform="translate(-432.888, 378.176) scale(1, -1)" id="rect5447" width="90" height="50" x="1460" y="-782.36224" rx="0.492188" ry="0.0625"/>
   <rect fill="#ff2a2a" transform="translate(-432.888, 378.176) scale(1, -1)" ry="0.0625" rx="0.492188" y="-842.36224" x="1460" height="50" width="90" id="rect5449"/>
   <rect fill="#ff2a2a" transform="translate(-432.888, 378.176) scale(1, -1)" id="rect5451" width="90" height="50" x="1460" y="-902.36224" rx="0.492188" ry="0.0625"/>
   <rect fill="#ff2a2a" transform="translate(-432.888, 378.176) scale(1, -1)" ry="0.0625" rx="0.492188" y="-962.36224" x="1460" height="50" width="90" id="rect5453"/>
   <rect fill="#ff2a2a" transform="translate(-432.888, 378.176) scale(1, -1)" ry="0.0625" rx="0.492188" y="-1022.3622" x="1460" height="50" width="90" id="rect5455"/>
   <rect fill="#ff2a2a" transform="translate(-432.888, 378.176) scale(1, -1)" id="rect5457" width="90" height="50" x="1460" y="-1082.3622" rx="0.492188" ry="0.0625"/>
   <rect fill="#ff2a2a" transform="translate(-432.888, 378.176) scale(1, -1)" ry="0.0625" rx="0.492188" y="-1142.3622" x="1460" height="50" width="90" id="rect5459"/>
   <rect fill="#ff7f2a" transform="translate(-432.888, 378.176) scale(1, -1)" ry="0.0625" rx="0.492188" y="-662.36224" x="1560" height="50" width="90" id="rect5461"/>
   <rect fill="#ff7f2a" transform="translate(-432.888, 378.176) scale(1, -1)" id="rect5463" width="90" height="50" x="1560" y="-722.36224" rx="0.492188" ry="0.0625"/>
   <rect fill="#ff7f2a" transform="translate(-432.888, 378.176) scale(1, -1)" ry="0.0625" rx="0.492188" y="-782.36224" x="1560" height="50" width="90" id="rect5465"/>
   <rect fill="#ff7f2a" transform="translate(-432.888, 378.176) scale(1, -1)" id="rect5467" width="90" height="50" x="1560" y="-842.36224" rx="0.492188" ry="0.0625"/>
   <rect fill="#ff7f2a" transform="translate(-432.888, 378.176) scale(1, -1)" ry="0.0625" rx="0.492188" y="-902.36224" x="1560" height="50" width="90" id="rect5469"/>
   <rect fill="#ff7f2a" transform="translate(-432.888, 378.176) scale(1, -1)" id="rect5471" width="90" height="50" x="1560" y="-962.36224" rx="0.492188" ry="0.0625"/>
   <rect fill="#ff7f2a" transform="translate(-432.888, 378.176) scale(1, -1)" id="rect5473" width="90" height="50" x="1560" y="-1022.3622" rx="0.492188" ry="0.0625"/>
   <rect fill="#ff7f2a" transform="translate(-432.888, 378.176) scale(1, -1)" ry="0.0625" rx="0.492188" y="-1082.3622" x="1560" height="50" width="90" id="rect5475"/>
   <rect fill="#ff7f2a" transform="translate(-432.888, 378.176) scale(1, -1)" id="rect5477" width="90" height="50" x="1560" y="-1142.3622" rx="0.492188" ry="0.0625"/>
   <rect fill="#ff7f2a" transform="translate(-432.888, 378.176) scale(1, -1)" ry="0.0625" rx="0.492188" y="-1202.3622" x="1560" height="50" width="90" id="rect5479"/>
   <rect fill="#ff6600" transform="translate(-432.888, 378.176) scale(1, -1)" id="rect5481" width="90" height="50" x="1660" y="-662.36224" rx="0.492188" ry="0.0625"/>
   <rect fill="#ff6600" transform="translate(-432.888, 378.176) scale(1, -1)" ry="0.0625" rx="0.492188" y="-722.36224" x="1660" height="50" width="90" id="rect5483"/>
   <rect fill="#ff6600" transform="translate(-432.888, 378.176) scale(1, -1)" id="rect5485" width="90" height="50" x="1660" y="-782.36224" rx="0.492188" ry="0.0625"/>
   <rect fill="#ff6600" transform="translate(-432.888, 378.176) scale(1, -1)" ry="0.0625" rx="0.492188" y="-842.36224" x="1660" height="50" width="90" id="rect5487"/>
   <rect fill="#ff6600" transform="translate(-432.888, 378.176) scale(1, -1)" id="rect5489" width="90" height="50" x="1660" y="-902.36224" rx="0.492188" ry="0.0625"/>
   <rect fill="#ff6600" transform="translate(-432.888, 378.176) scale(1, -1)" ry="0.0625" rx="0.492188" y="-962.36224" x="1660" height="50" width="90" id="rect5491"/>
   <rect fill="#ff6600" transform="translate(-432.888, 378.176) scale(1, -1)" ry="0.0625" rx="0.492188" y="-1022.3622" x="1660" height="50" width="90" id="rect5493"/>
   <rect fill="#ff6600" transform="translate(-432.888, 378.176) scale(1, -1)" id="rect5495" width="90" height="50" x="1660" y="-1082.3622" rx="0.492188" ry="0.0625"/>
   <rect fill="#ff6600" transform="translate(-432.888, 378.176) scale(1, -1)" ry="0.0625" rx="0.492188" y="-1142.3622" x="1660" height="50" width="90" id="rect5497"/>
   <rect fill="#ff6600" transform="translate(-432.888, 378.176) scale(1, -1)" id="rect5499" width="90" height="50" x="1660" y="-1202.3622" rx="0.492188" ry="0.0625"/>
   <rect fill="#ff6600" transform="translate(-432.888, 378.176) scale(1, -1)" ry="0.0625" rx="0.492188" y="-1262.3622" x="1660" height="50" width="90" id="rect5501"/>
   <rect fill="#ff6600" transform="translate(-432.888, 378.176) scale(1, -1)" id="rect5503" width="90" height="50" x="1660" y="-1322.3622" rx="0.492188" ry="0.0625"/>
   <rect fill="#fcfc1c" transform="translate(-432.888, 378.176) scale(1, -1)" ry="0.0625" rx="0.492188" y="-662.36224" x="1760" height="50" width="90" id="rect5505"/>
   <rect fill="#fcfc1c" transform="translate(-432.888, 378.176) scale(1, -1)" id="rect5507" width="90" height="50" x="1760" y="-722.36224" rx="0.492188" ry="0.0625"/>
   <rect fill="#fcfc1c" transform="translate(-432.888, 378.176) scale(1, -1)" ry="0.0625" rx="0.492188" y="-782.36224" x="1760" height="50" width="90" id="rect5509"/>
   <rect fill="#fcfc1c" transform="translate(-432.888, 378.176) scale(1, -1)" id="rect5511" width="90" height="50" x="1760" y="-842.36224" rx="0.492188" ry="0.0625"/>
   <rect fill="#fcfc1c" transform="translate(-432.888, 378.176) scale(1, -1)" ry="0.0625" rx="0.492188" y="-902.36224" x="1760" height="50" width="90" id="rect5513"/>
   <rect fill="#fcfc1c" transform="translate(-432.888, 378.176) scale(1, -1)" id="rect5515" width="90" height="50" x="1760" y="-962.36224" rx="0.492188" ry="0.0625"/>
   <rect fill="#fcfc1c" transform="translate(-432.888, 378.176) scale(1, -1)" id="rect5517" width="90" height="50" x="1760" y="-1022.3622" rx="0.492188" ry="0.0625"/>
   <rect fill="#fcfc1c" transform="translate(-432.888, 378.176) scale(1, -1)" ry="0.0625" rx="0.492188" y="-1082.3622" x="1760" height="50" width="90" id="rect5519"/>
   <rect fill="#fcfc1c" transform="translate(-432.888, 378.176) scale(1, -1)" id="rect5521" width="90" height="50" x="1760" y="-1142.3622" rx="0.492188" ry="0.0625"/>
   <rect fill="#fcfc1c" transform="translate(-432.888, 378.176) scale(1, -1)" ry="0.0625" rx="0.492188" y="-1202.3622" x="1760" height="50" width="90" id="rect5523"/>
   <rect fill="#ffd42a" transform="translate(-432.888, 378.176) scale(1, -1)" id="rect5525" width="90" height="50" x="1860" y="-662.36224" rx="0.492188" ry="0.0625"/>
   <rect fill="#ffd42a" transform="translate(-432.888, 378.176) scale(1, -1)" ry="0.0625" rx="0.492188" y="-722.36224" x="1860" height="50" width="90" id="rect5527"/>
   <rect fill="#ffd42a" transform="translate(-432.888, 378.176) scale(1, -1)" id="rect5529" width="90" height="50" x="1860" y="-782.36224" rx="0.492188" ry="0.0625"/>
   <rect fill="#ffd42a" transform="translate(-432.888, 378.176) scale(1, -1)" ry="0.0625" rx="0.492188" y="-842.36224" x="1860" height="50" width="90" id="rect5531"/>
   <rect fill="#ffd42a" transform="translate(-432.888, 378.176) scale(1, -1)" id="rect5533" width="90" height="50" x="1860" y="-902.36224" rx="0.492188" ry="0.0625"/>
   <rect fill="#ffd42a" transform="translate(-432.888, 378.176) scale(1, -1)" ry="0.0625" rx="0.492188" y="-962.36224" x="1860" height="50" width="90" id="rect5535"/>
   <rect fill="#ffd42a" transform="translate(-432.888, 378.176) scale(1, -1)" ry="0.0625" rx="0.492188" y="-1022.3622" x="1860" height="50" width="90" id="rect5537"/>
   <rect fill="#ffd42a" transform="translate(-432.888, 378.176) scale(1, -1)" id="rect5539" width="90" height="50" x="1860" y="-1082.3622" rx="0.492188" ry="0.0625"/>
   <rect fill="#ffd42a" transform="translate(-432.888, 378.176) scale(1, -1)" ry="0.0625" rx="0.492188" y="-1142.3622" x="1860" height="50" width="90" id="rect5541"/>
   <rect fill="#ffd42a" transform="translate(-432.888, 378.176) scale(1, -1)" id="rect5543" width="90" height="50" x="1860" y="-1202.3622" rx="0.492188" ry="0.0625"/>
   <rect fill="#ffd42a" transform="translate(-432.888, 378.176) scale(1, -1)" ry="0.0625" rx="0.492188" y="-1262.3622" x="1860" height="50" width="90" id="rect5545"/>
   <rect fill="#f0e464" transform="translate(-432.888, 378.176) scale(1, -1)" ry="0.0625" rx="0.492188" y="-662.36224" x="1960" height="50" width="90" id="rect5547"/>
   <rect fill="#f0e464" transform="translate(-432.888, 378.176) scale(1, -1)" id="rect5549" width="90" height="50" x="1960" y="-722.36224" rx="0.492188" ry="0.0625"/>
   <rect fill="#f0e464" transform="translate(-432.888, 378.176) scale(1, -1)" ry="0.0625" rx="0.492188" y="-782.36224" x="1960" height="50" width="90" id="rect5551"/>
   <rect fill="#f0e464" transform="translate(-432.888, 378.176) scale(1, -1)" id="rect5553" width="90" height="50" x="1960" y="-842.36224" rx="0.492188" ry="0.0625"/>
   <rect fill="#f0e464" transform="translate(-432.888, 378.176) scale(1, -1)" ry="0.0625" rx="0.492188" y="-902.36224" x="1960" height="50" width="90" id="rect5555"/>
   <rect fill="#f0e464" transform="translate(-432.888, 378.176) scale(1, -1)" id="rect5557" width="90" height="50" x="1960" y="-962.36224" rx="0.492188" ry="0.0625"/>
   <rect fill="#f0e464" transform="translate(-432.888, 378.176) scale(1, -1)" id="rect5559" width="90" height="50" x="1960" y="-1022.3622" rx="0.492188" ry="0.0625"/>
   <rect fill="#f0e464" transform="translate(-432.888, 378.176) scale(1, -1)" ry="0.0625" rx="0.492188" y="-1082.3622" x="1960" height="50" width="90" id="rect5561"/>
   <rect fill="#dcb834" transform="translate(-432.888, 378.176) scale(1, -1)" id="rect5563" width="90" height="50" x="2060" y="-662.36224" rx="0.492188" ry="0.0625"/>
   <rect fill="#dcb834" transform="translate(-432.888, 378.176) scale(1, -1)" ry="0.0625" rx="0.492188" y="-722.36224" x="2060" height="50" width="90" id="rect5565"/>
   <rect fill="#dcb834" transform="translate(-432.888, 378.176) scale(1, -1)" id="rect5567" width="90" height="50" x="2060" y="-782.36224" rx="0.492188" ry="0.0625"/>
   <rect fill="#dcb834" transform="translate(-432.888, 378.176) scale(1, -1)" ry="0.0625" rx="0.492188" y="-842.36224" x="2060" height="50" width="90" id="rect5569"/>
   <rect fill="#dcb834" transform="translate(-432.888, 378.176) scale(1, -1)" id="rect5571" width="90" height="50" x="2060" y="-902.36224" rx="0.492188" ry="0.0625"/>
   <rect fill="#dcb834" transform="translate(-432.888, 378.176) scale(1, -1)" ry="0.0625" rx="0.492188" y="-962.36224" x="2060" height="50" width="90" id="rect5573"/>
   <rect fill="#dcb834" transform="translate(-432.888, 378.176) scale(1, -1)" ry="0.0625" rx="0.492188" y="-1022.3622" x="2060" height="50" width="90" id="rect5575"/>
   <rect fill="#dcb834" transform="translate(-432.888, 378.176) scale(1, -1)" id="rect5577" width="90" height="50" x="2060" y="-1082.3622" rx="0.492188" ry="0.0625"/>
   <rect fill="#dcb834" transform="translate(-432.888, 378.176) scale(1, -1)" ry="0.0625" rx="0.492188" y="-1142.3622" x="2060" height="50" width="90" id="rect5579"/>
   <rect fill="#dcb834" transform="translate(-432.888, 378.176) scale(1, -1)" id="rect5581" width="90" height="50" x="2060" y="-1202.3622" rx="0.492188" ry="0.0625"/>
   <rect fill="#c8fc04" transform="translate(-432.888, 378.176) scale(1, -1)" ry="0.0625" rx="0.492188" y="-662.36224" x="2160" height="50" width="90" id="rect5583"/>
   <rect fill="#c8fc04" transform="translate(-432.888, 378.176) scale(1, -1)" id="rect5585" width="90" height="50" x="2160" y="-722.36224" rx="0.492188" ry="0.0625"/>
   <rect fill="#c8fc04" transform="translate(-432.888, 378.176) scale(1, -1)" ry="0.0625" rx="0.492188" y="-782.36224" x="2160" height="50" width="90" id="rect5587"/>
   <rect fill="#c8fc04" transform="translate(-432.888, 378.176) scale(1, -1)" id="rect5589" width="90" height="50" x="2160" y="-842.36224" rx="0.492188" ry="0.0625"/>
   <rect fill="#c8fc04" transform="translate(-432.888, 378.176) scale(1, -1)" ry="0.0625" rx="0.492188" y="-902.36224" x="2160" height="50" width="90" id="rect5591"/>
   <rect fill="#c8fc04" transform="translate(-432.888, 378.176) scale(1, -1)" id="rect5593" width="90" height="50" x="2160" y="-962.36224" rx="0.492188" ry="0.0625"/>
   <rect fill="#c8fc04" transform="translate(-432.888, 378.176) scale(1, -1)" id="rect5595" width="90" height="50" x="2160" y="-1022.3622" rx="0.492188" ry="0.0625"/>
   <rect fill="#c8fc04" transform="translate(-432.888, 378.176) scale(1, -1)" ry="0.0625" rx="0.492188" y="-1082.3622" x="2160" height="50" width="90" id="rect5597"/>
   <rect fill="#c8fc04" transform="translate(-432.888, 378.176) scale(1, -1)" id="rect5599" width="90" height="50" x="2160" y="-1142.3622" rx="0.492188" ry="0.0625"/>
   <rect fill="#c8fc04" transform="translate(-432.888, 378.176) scale(1, -1)" ry="0.0625" rx="0.492188" y="-1202.3622" x="2160" height="50" width="90" id="rect5601"/>
   <rect fill="#c8fc04" transform="translate(-432.888, 378.176) scale(1, -1)" id="rect5603" width="90" height="50" x="2160" y="-1262.3622" rx="0.492188" ry="0.0625"/>
   <rect fill="#c8fc04" transform="translate(-432.888, 378.176) scale(1, -1)" ry="0.0625" rx="0.492188" y="-1322.3622" x="2160" height="50" width="90" id="rect5605"/>
   <rect fill="#00c800" transform="translate(-432.888, 378.176) scale(1, -1)" id="rect5607" width="90" height="50" x="2260" y="-662.36224" rx="0.492188" ry="0.0625"/>
   <rect fill="#00c800" transform="translate(-432.888, 378.176) scale(1, -1)" ry="0.0625" rx="0.492188" y="-722.36224" x="2260" height="50" width="90" id="rect5609"/>
   <rect fill="#00c800" transform="translate(-432.888, 378.176) scale(1, -1)" id="rect5611" width="90" height="50" x="2260" y="-782.36224" rx="0.492188" ry="0.0625"/>
   <rect fill="#00c800" transform="translate(-432.888, 378.176) scale(1, -1)" ry="0.0625" rx="0.492188" y="-842.36224" x="2260" height="50" width="90" id="rect5613"/>
   <rect fill="#00c800" transform="translate(-432.888, 378.176) scale(1, -1)" id="rect5615" width="90" height="50" x="2260" y="-902.36224" rx="0.492188" ry="0.0625"/>
   <rect fill="#00c800" transform="translate(-432.888, 378.176) scale(1, -1)" ry="0.0625" rx="0.492188" y="-962.36224" x="2260" height="50" width="90" id="rect5617"/>
   <rect fill="#00c800" transform="translate(-432.888, 378.176) scale(1, -1)" ry="0.0625" rx="0.492188" y="-1022.3622" x="2260" height="50" width="90" id="rect5619"/>
   <rect fill="#00c800" transform="translate(-432.888, 378.176) scale(1, -1)" id="rect5621" width="90" height="50" x="2260" y="-1082.3622" rx="0.492188" ry="0.0625"/>
   <rect fill="#00c800" transform="translate(-432.888, 378.176) scale(1, -1)" ry="0.0625" rx="0.492188" y="-1142.3622" x="2260" height="50" width="90" id="rect5623"/>
   <rect fill="#00ac00" transform="translate(-432.888, 378.176) scale(1, -1)" id="rect5625" width="90" height="50" x="2360" y="-662.36224" rx="0.492188" ry="0.0625"/>
   <rect fill="#00ac00" transform="translate(-432.888, 378.176) scale(1, -1)" ry="0.0625" rx="0.492188" y="-722.36224" x="2360" height="50" width="90" id="rect5627"/>
   <rect fill="#00ac00" transform="translate(-432.888, 378.176) scale(1, -1)" id="rect5629" width="90" height="50" x="2360" y="-782.36224" rx="0.492188" ry="0.0625"/>
   <rect fill="#00ac00" transform="translate(-432.888, 378.176) scale(1, -1)" ry="0.0625" rx="0.492188" y="-842.36224" x="2360" height="50" width="90" id="rect5631"/>
   <rect fill="#00ac00" transform="translate(-432.888, 378.176) scale(1, -1)" id="rect5633" width="90" height="50" x="2360" y="-902.36224" rx="0.492188" ry="0.0625"/>
   <rect fill="#00ac00" transform="translate(-432.888, 378.176) scale(1, -1)" ry="0.0625" rx="0.492188" y="-962.36224" x="2360" height="50" width="90" id="rect5635"/>
   <rect fill="#00ac00" transform="translate(-432.888, 378.176) scale(1, -1)" ry="0.0625" rx="0.492188" y="-1022.3622" x="2360" height="50" width="90" id="rect5637"/>
   <rect fill="#00ac00" transform="translate(-432.888, 378.176) scale(1, -1)" id="rect5639" width="90" height="50" x="2360" y="-1082.3622" rx="0.492188" ry="0.0625"/>
   <rect fill="#00ac00" transform="translate(-432.888, 378.176) scale(1, -1)" ry="0.0625" rx="0.492188" y="-1142.3622" x="2360" height="50" width="90" id="rect5641"/>
   <rect fill="#00ac00" transform="translate(-432.888, 378.176) scale(1, -1)" id="rect5643" width="90" height="50" x="2360" y="-1202.3622" rx="0.492188" ry="0.0625"/>
   <rect fill="#24d000" transform="translate(-432.888, 378.176) scale(1, -1)" ry="0.0625" rx="0.492188" y="-662.36224" x="2460" height="50" width="90" id="rect5645"/>
   <rect fill="#24d000" transform="translate(-432.888, 378.176) scale(1, -1)" id="rect5647" width="90" height="50" x="2460" y="-722.36224" rx="0.492188" ry="0.0625"/>
   <rect fill="#24d000" transform="translate(-432.888, 378.176) scale(1, -1)" ry="0.0625" rx="0.492188" y="-782.36224" x="2460" height="50" width="90" id="rect5649"/>
   <rect fill="#24d000" transform="translate(-432.888, 378.176) scale(1, -1)" id="rect5651" width="90" height="50" x="2460" y="-842.36224" rx="0.492188" ry="0.0625"/>
   <rect fill="#24d000" transform="translate(-432.888, 378.176) scale(1, -1)" ry="0.0625" rx="0.492188" y="-902.36224" x="2460" height="50" width="90" id="rect5653"/>
   <rect fill="#24d000" transform="translate(-432.888, 378.176) scale(1, -1)" id="rect5655" width="90" height="50" x="2460" y="-962.36224" rx="0.492188" ry="0.0625"/>
   <rect fill="#24d000" transform="translate(-432.888, 378.176) scale(1, -1)" id="rect5657" width="90" height="50" x="2460" y="-1022.3622" rx="0.492188" ry="0.0625"/>
   <rect fill="#24d000" transform="translate(-432.888, 378.176) scale(1, -1)" ry="0.0625" rx="0.492188" y="-1082.3622" x="2460" height="50" width="90" id="rect5659"/>
   <rect fill="#24d000" transform="translate(-432.888, 378.176) scale(1, -1)" id="rect5661" width="90" height="50" x="2460" y="-1142.3622" rx="0.492188" ry="0.0625"/>
   <rect fill="#24d000" transform="translate(-432.888, 378.176) scale(1, -1)" ry="0.0625" rx="0.492188" y="-1202.3622" x="2460" height="50" width="90" id="rect5663"/>
   <rect fill="#24d000" transform="translate(-432.888, 378.176) scale(1, -1)" id="rect5665" width="90" height="50" x="2460" y="-1262.3622" rx="0.492188" ry="0.0625"/>
   <rect fill="#24d000" transform="translate(-432.888, 378.176) scale(1, -1)" ry="0.0625" rx="0.492188" y="-1322.3622" x="2460" height="50" width="90" id="rect5667"/>
   <rect fill="#64e000" transform="translate(-432.888, 378.176) scale(1, -1)" id="rect5669" width="90" height="50" x="2560" y="-662.36224" rx="0.492188" ry="0.0625"/>
   <rect fill="#64e000" transform="translate(-432.888, 378.176) scale(1, -1)" ry="0.0625" rx="0.492188" y="-722.36224" x="2560" height="50" width="90" id="rect5671"/>
   <rect fill="#64e000" transform="translate(-432.888, 378.176) scale(1, -1)" id="rect5673" width="90" height="50" x="2560" y="-782.36224" rx="0.492188" ry="0.0625"/>
   <rect fill="#64e000" transform="translate(-432.888, 378.176) scale(1, -1)" ry="0.0625" rx="0.492188" y="-842.36224" x="2560" height="50" width="90" id="rect5675"/>
   <rect fill="#64e000" transform="translate(-432.888, 378.176) scale(1, -1)" id="rect5677" width="90" height="50" x="2560" y="-902.36224" rx="0.492188" ry="0.0625"/>
   <rect fill="#64e000" transform="translate(-432.888, 378.176) scale(1, -1)" ry="0.0625" rx="0.492188" y="-962.36224" x="2560" height="50" width="90" id="rect5679"/>
   <rect fill="#64e000" transform="translate(-432.888, 378.176) scale(1, -1)" ry="0.0625" rx="0.492188" y="-1022.3622" x="2560" height="50" width="90" id="rect5681"/>
   <rect fill="#64e000" transform="translate(-432.888, 378.176) scale(1, -1)" id="rect5683" width="90" height="50" x="2560" y="-1082.3622" rx="0.492188" ry="0.0625"/>
   <rect fill="#64e000" transform="translate(-432.888, 378.176) scale(1, -1)" ry="0.0625" rx="0.492188" y="-1142.3622" x="2560" height="50" width="90" id="rect5685"/>
   <rect fill="#64e000" transform="translate(-432.888, 378.176) scale(1, -1)" id="rect5687" width="90" height="50" x="2560" y="-1202.3622" rx="0.492188" ry="0.0625"/>
   <rect fill="#64e000" transform="translate(-432.888, 378.176) scale(1, -1)" ry="0.0625" rx="0.492188" y="-1262.3622" x="2560" height="50" width="90" id="rect5689"/>
   <rect fill="#4cd8fc" transform="translate(-432.888, 378.176) scale(1, -1)" ry="0.0625" rx="0.492188" y="-662.36224" x="2660" height="50" width="90" id="rect5691"/>
   <rect fill="#4cd8fc" transform="translate(-432.888, 378.176) scale(1, -1)" id="rect5693" width="90" height="50" x="2660" y="-722.36224" rx="0.492188" ry="0.0625"/>
   <rect fill="#4cd8fc" transform="translate(-432.888, 378.176) scale(1, -1)" ry="0.0625" rx="0.492188" y="-782.36224" x="2660" height="50" width="90" id="rect5695"/>
   <rect fill="#4cd8fc" transform="translate(-432.888, 378.176) scale(1, -1)" id="rect5697" width="90" height="50" x="2660" y="-842.36224" rx="0.492188" ry="0.0625"/>
   <rect fill="#4cd8fc" transform="translate(-432.888, 378.176) scale(1, -1)" ry="0.0625" rx="0.492188" y="-902.36224" x="2660" height="50" width="90" id="rect5699"/>
   <rect fill="#4cd8fc" transform="translate(-432.888, 378.176) scale(1, -1)" id="rect5701" width="90" height="50" x="2660" y="-962.36224" rx="0.492188" ry="0.0625"/>
   <rect fill="#4cd8fc" transform="translate(-432.888, 378.176) scale(1, -1)" id="rect5703" width="90" height="50" x="2660" y="-1022.3622" rx="0.492188" ry="0.0625"/>
   <rect fill="#4cd8fc" transform="translate(-432.888, 378.176) scale(1, -1)" ry="0.0625" rx="0.492188" y="-1082.3622" x="2660" height="50" width="90" id="rect5705"/>
   <rect fill="#4cd8fc" transform="translate(-432.888, 378.176) scale(1, -1)" id="rect5707" width="90" height="50" x="2660" y="-1142.3622" rx="0.492188" ry="0.0625"/>
   <rect fill="#4cd8fc" transform="translate(-432.888, 378.176) scale(1, -1)" ry="0.0625" rx="0.492188" y="-1202.3622" x="2660" height="50" width="90" id="rect5709"/>
   <rect fill="#00b8f8" transform="translate(-432.888, 378.176) scale(1, -1)" id="rect5711" width="90" height="50" x="2760" y="-662.36224" rx="0.492188" ry="0.0625"/>
   <rect fill="#00b8f8" transform="translate(-432.888, 378.176) scale(1, -1)" ry="0.0625" rx="0.492188" y="-722.36224" x="2760" height="50" width="90" id="rect5713"/>
   <rect fill="#00b8f8" transform="translate(-432.888, 378.176) scale(1, -1)" id="rect5715" width="90" height="50" x="2760" y="-782.36224" rx="0.492188" ry="0.0625"/>
   <rect fill="#00b8f8" transform="translate(-432.888, 378.176) scale(1, -1)" ry="0.0625" rx="0.492188" y="-842.36224" x="2760" height="50" width="90" id="rect5717"/>
   <rect fill="#00b8f8" transform="translate(-432.888, 378.176) scale(1, -1)" id="rect5719" width="90" height="50" x="2760" y="-902.36224" rx="0.492188" ry="0.0625"/>
   <rect fill="#00b8f8" transform="translate(-432.888, 378.176) scale(1, -1)" ry="0.0625" rx="0.492188" y="-962.36224" x="2760" height="50" width="90" id="rect5721"/>
   <rect fill="#00b8f8" transform="translate(-432.888, 378.176) scale(1, -1)" ry="0.0625" rx="0.492188" y="-1022.3622" x="2760" height="50" width="90" id="rect5723"/>
   <rect fill="#00b8f8" transform="translate(-432.888, 378.176) scale(1, -1)" id="rect5725" width="90" height="50" x="2760" y="-1082.3622" rx="0.492188" ry="0.0625"/>
   <rect fill="#00b8f8" transform="translate(-432.888, 378.176) scale(1, -1)" ry="0.0625" rx="0.492188" y="-1142.3622" x="2760" height="50" width="90" id="rect5727"/>
   <rect fill="#0074e4" transform="translate(-432.888, 378.176) scale(1, -1)" ry="0.0625" rx="0.492188" y="-662.36224" x="2860" height="50" width="90" id="rect5729"/>
   <rect fill="#0074e4" transform="translate(-432.888, 378.176) scale(1, -1)" id="rect5731" width="90" height="50" x="2860" y="-722.36224" rx="0.492188" ry="0.0625"/>
   <rect fill="#0074e4" transform="translate(-432.888, 378.176) scale(1, -1)" ry="0.0625" rx="0.492188" y="-782.36224" x="2860" height="50" width="90" id="rect5733"/>
   <rect fill="#0074e4" transform="translate(-432.888, 378.176) scale(1, -1)" id="rect5735" width="90" height="50" x="2860" y="-842.36224" rx="0.492188" ry="0.0625"/>
   <rect fill="#0074e4" transform="translate(-432.888, 378.176) scale(1, -1)" ry="0.0625" rx="0.492188" y="-902.36224" x="2860" height="50" width="90" id="rect5737"/>
   <rect fill="#0074e4" transform="translate(-432.888, 378.176) scale(1, -1)" id="rect5739" width="90" height="50" x="2860" y="-962.36224" rx="0.492188" ry="0.0625"/>
   <rect fill="#0074e4" transform="translate(-432.888, 378.176) scale(1, -1)" id="rect5741" width="90" height="50" x="2860" y="-1022.3622" rx="0.492188" ry="0.0625"/>
   <rect fill="#0074e4" transform="translate(-432.888, 378.176) scale(1, -1)" ry="0.0625" rx="0.492188" y="-1082.3622" x="2860" height="50" width="90" id="rect5743"/>
   <rect fill="#0074e4" transform="translate(-432.888, 378.176) scale(1, -1)" id="rect5745" width="90" height="50" x="2860" y="-1142.3622" rx="0.492188" ry="0.0625"/>
   <rect fill="#0074e4" transform="translate(-432.888, 378.176) scale(1, -1)" ry="0.0625" rx="0.492188" y="-1202.3622" x="2860" height="50" width="90" id="rect5747"/>
   <rect fill="#0004c8" transform="translate(-432.888, 378.176) scale(1, -1)" id="rect5749" width="90" height="50" x="2960" y="-662.36224" rx="0.492188" ry="0.0625"/>
   <rect fill="#0004c8" transform="translate(-432.888, 378.176) scale(1, -1)" ry="0.0625" rx="0.492188" y="-722.36224" x="2960" height="50" width="90" id="rect5751"/>
   <rect fill="#0004c8" transform="translate(-432.888, 378.176) scale(1, -1)" id="rect5753" width="90" height="50" x="2960" y="-782.36224" rx="0.492188" ry="0.0625"/>
   <rect fill="#0004c8" transform="translate(-432.888, 378.176) scale(1, -1)" ry="0.0625" rx="0.492188" y="-842.36224" x="2960" height="50" width="90" id="rect5755"/>
   <rect fill="#0004c8" transform="translate(-432.888, 378.176) scale(1, -1)" id="rect5757" width="90" height="50" x="2960" y="-902.36224" rx="0.492188" ry="0.0625"/>
   <rect fill="#0004c8" transform="translate(-432.888, 378.176) scale(1, -1)" ry="0.0625" rx="0.492188" y="-962.36224" x="2960" height="50" width="90" id="rect5759"/>
   <rect fill="#0004c8" transform="translate(-432.888, 378.176) scale(1, -1)" ry="0.0625" rx="0.492188" y="-1022.3622" x="2960" height="50" width="90" id="rect5761"/>
   <rect fill="#0004c8" transform="translate(-432.888, 378.176) scale(1, -1)" id="rect5763" width="90" height="50" x="2960" y="-1082.3622" rx="0.492188" ry="0.0625"/>
   <rect fill="#0004c8" transform="translate(-432.888, 378.176) scale(1, -1)" ry="0.0625" rx="0.492188" y="-1142.3622" x="2960" height="50" width="90" id="rect5765"/>
   <rect fill="#0004c8" transform="translate(-432.888, 378.176) scale(1, -1)" id="rect5767" width="90" height="50" x="2960" y="-1202.3622" rx="0.492188" ry="0.0625"/>
   <rect fill="#0004c8" transform="translate(-432.888, 378.176) scale(1, -1)" ry="0.0625" rx="0.492188" y="-1262.3622" x="2960" height="50" width="90" id="rect5769"/>
   <rect fill="#00006c" transform="translate(-432.888, 378.176) scale(1, -1)" ry="0.0625" rx="0.492188" y="-662.36224" x="3060" height="50" width="90" id="rect5771"/>
   <rect fill="#00006c" transform="translate(-432.888, 378.176) scale(1, -1)" id="rect5773" width="90" height="50" x="3060" y="-722.36224" rx="0.492188" ry="0.0625"/>
   <rect fill="#00006c" transform="translate(-432.888, 378.176) scale(1, -1)" ry="0.0625" rx="0.492188" y="-782.36224" x="3060" height="50" width="90" id="rect5775"/>
   <rect fill="#00006c" transform="translate(-432.888, 378.176) scale(1, -1)" id="rect5777" width="90" height="50" x="3060" y="-842.36224" rx="0.492188" ry="0.0625"/>
   <rect fill="#00006c" transform="translate(-432.888, 378.176) scale(1, -1)" ry="0.0625" rx="0.492188" y="-902.36224" x="3060" height="50" width="90" id="rect5779"/>
   <rect fill="#00006c" transform="translate(-432.888, 378.176) scale(1, -1)" id="rect5781" width="90" height="50" x="3060" y="-962.36224" rx="0.492188" ry="0.0625"/>
   <rect fill="#00006c" transform="translate(-432.888, 378.176) scale(1, -1)" id="rect5783" width="90" height="50" x="3060" y="-1022.3622" rx="0.492188" ry="0.0625"/>
   <rect fill="#00006c" transform="translate(-432.888, 378.176) scale(1, -1)" ry="0.0625" rx="0.492188" y="-1082.3622" x="3060" height="50" width="90" id="rect5785"/>
   <rect fill="#00006c" transform="translate(-432.888, 378.176) scale(1, -1)" id="rect5787" width="90" height="50" x="3060" y="-1142.3622" rx="0.492188" ry="0.0625"/>
   <rect fill="#00006c" transform="translate(-432.888, 378.176) scale(1, -1)" ry="0.0625" rx="0.492188" y="-1202.3622" x="3060" height="50" width="90" id="rect5789"/>
   <rect fill="#00006c" transform="translate(-432.888, 378.176) scale(1, -1)" id="rect5791" width="90" height="50" x="3060" y="-1262.3622" rx="0.492188" ry="0.0625"/>
   <rect fill="#00006c" transform="translate(-432.888, 378.176) scale(1, -1)" ry="0.0625" rx="0.492188" y="-1322.3622" x="3060" height="50" width="90" id="rect5793"/>
   <rect fill="#000000" fill-opacity="0.618182" ry="0.157252" rx="0.595026" y="974.286105" x="0.00046" height="926.60693" width="3056.0522" id="rect6600"/>
   <path fill="url(#linearGradient7371)" id="rect6569" d="m12.64093,0.000031l3041.054871,0c0.329102,0 0.594238,0.063019 0.594238,0.141327l0,1899.213989c0,0.078003 -0.265137,0.141357 -0.594238,0.141357l-3041.054871,0c-0.329224,0 -0.592529,-0.062988 -0.594208,-0.141357c-14.431793,-677.377441 -16.529358,-1316.888428 0,-1899.213989c0,-0.078278 0.264984,-0.141327 0.594208,-0.141327z"/>
  </g>
 </g>
</svg>